<?xml version="1.0" standalone="no"?>
<!DOCTYPE svg PUBLIC "-//W3C//DTD SVG 20010904//EN"
 "http://www.w3.org/TR/2001/REC-SVG-20010904/DTD/svg10.dtd">
<svg version="1.0" xmlns="http://www.w3.org/2000/svg"
 width="1080.000000pt" height="1080.000000pt" viewBox="0 0 1080.000000 1080.000000"
 preserveAspectRatio="xMidYMid meet">

<g transform="translate(0.000000,1080.000000) scale(0.100000,-0.100000)"
fill="#000000" stroke="none">
<path d="M5300 9502 c0 -33 33 -185 52 -237 6 -16 14 -55 18 -85 8 -56 23
-120 45 -200 7 -25 16 -65 20 -90 12 -83 10 -81 73 -78 l56 3 42 95 c41 92 68
150 133 292 17 36 31 73 31 81 0 7 8 21 18 30 17 16 19 14 34 -36 9 -28 19
-70 23 -92 3 -22 10 -53 15 -70 5 -16 21 -84 36 -150 15 -66 31 -124 35 -129
5 -6 9 -25 9 -42 0 -31 2 -33 47 -40 57 -8 57 -9 129 155 60 136 87 197 119
267 51 109 105 238 101 241 -2 2 -20 7 -40 10 l-36 6 -41 -89 c-22 -49 -48
-105 -56 -124 -9 -19 -38 -82 -65 -140 -27 -58 -52 -117 -55 -132 -3 -15 -13
-34 -23 -43 -16 -15 -18 -14 -25 2 -8 19 -36 143 -60 263 -8 41 -24 109 -36
150 -11 41 -23 91 -26 112 -5 37 -20 48 -71 48 -24 0 -22 2 -132 -235 -127
-274 -144 -305 -157 -294 -7 6 -13 26 -13 43 0 17 -9 64 -20 105 -11 41 -20
84 -20 95 0 12 -7 34 -15 50 -8 15 -15 42 -15 60 0 17 -5 49 -11 71 -6 22 -15
64 -21 93 -8 43 -14 52 -31 52 -12 0 -32 3 -44 6 -20 6 -23 3 -23 -24z"/>
<path d="M4278 9147 c-24 -18 -50 -47 -58 -64 -19 -41 -27 -41 -35 -2 -7 30
-9 31 -47 26 -22 -3 -42 -8 -45 -11 -4 -3 1 -23 9 -43 9 -21 35 -99 59 -173
23 -74 46 -139 49 -145 4 -5 10 -27 14 -47 4 -21 17 -49 29 -63 20 -24 25 -25
55 -14 36 12 36 12 23 37 -5 9 -21 58 -36 107 -15 50 -31 94 -36 100 -5 5 -9
40 -9 79 0 83 23 125 83 152 21 10 40 21 43 26 7 11 -28 68 -42 68 -7 0 -32
-15 -56 -33z"/>
<path d="M6521 9112 c-56 -19 -122 -84 -150 -147 -28 -64 -29 -170 -1 -225 24
-47 103 -117 156 -138 50 -19 161 -27 197 -13 24 9 28 16 25 43 l-3 33 -66 -3
c-85 -5 -136 10 -186 53 -34 29 -44 46 -54 91 -18 79 -10 83 103 44 51 -17
107 -35 123 -40 17 -4 55 -18 85 -30 86 -34 95 -35 107 -7 59 129 -27 299
-171 341 -65 19 -106 19 -165 -2z m190 -90 c62 -40 70 -53 76 -122 5 -47 3
-60 -8 -60 -18 0 -223 69 -276 93 -47 21 -47 32 -1 73 38 35 60 43 114 44 38
0 61 -7 95 -28z"/>
<path d="M7196 9108 c-7 -13 -29 -52 -48 -88 -19 -36 -46 -83 -60 -105 -14
-22 -45 -77 -69 -122 -24 -46 -53 -98 -64 -117 -56 -96 -106 -188 -103 -190 2
-1 16 -10 32 -21 l30 -18 26 32 27 31 14 -42 c30 -92 133 -158 246 -158 229 0
350 292 188 455 -55 54 -91 69 -182 75 l-81 5 32 55 c18 30 49 85 69 122 l38
67 -40 21 -40 20 -15 -22z m90 -352 c30 -14 64 -40 80 -62 25 -32 29 -46 29
-103 0 -56 -4 -72 -29 -109 -41 -61 -88 -87 -158 -87 -47 0 -64 6 -99 30 -44
31 -88 102 -89 144 0 35 58 149 86 167 28 19 92 43 114 43 8 1 38 -10 66 -23z"/>
<path d="M3729 8944 c-57 -18 -132 -82 -161 -138 -55 -106 -8 -272 97 -341
105 -69 236 -57 350 34 64 50 87 123 44 136 -17 6 -30 -3 -64 -42 -83 -95
-194 -121 -273 -64 -22 16 -43 35 -47 41 -9 15 13 40 36 40 9 0 24 7 33 15 8
8 19 15 25 15 6 0 54 22 108 49 54 27 108 52 119 55 12 4 29 15 39 26 17 18
16 21 -9 64 -30 51 -90 96 -152 114 -51 15 -86 14 -145 -4z m169 -93 c66 -47
63 -51 -76 -121 -70 -34 -135 -70 -146 -79 -10 -9 -20 -15 -23 -14 -23 7 -31
91 -13 138 13 34 37 58 85 84 51 28 128 25 173 -8z"/>
<path d="M4837 8865 c-46 -45 -23 -115 38 -115 38 0 55 20 55 67 0 38 -11 52
-46 59 -22 4 -36 1 -47 -11z"/>
<path d="M7994 8641 c-33 -21 -167 -109 -299 -196 -439 -289 -435 -286 -435
-306 0 -11 11 -24 23 -30 20 -9 32 -5 83 29 97 65 448 296 466 307 10 5 34 22
55 36 21 14 85 56 141 93 101 65 103 68 86 87 -25 28 -55 23 -120 -20z"/>
<path d="M3191 8624 c-44 -19 -121 -81 -121 -98 0 -8 -6 -19 -14 -25 -7 -6
-17 -30 -20 -54 l-7 -42 -27 33 -28 33 -29 -22 c-17 -13 -31 -24 -33 -25 -5
-3 134 -198 273 -382 28 -37 63 -86 79 -110 16 -23 39 -54 52 -68 l24 -25 30
21 c37 26 37 36 2 80 -16 19 -50 65 -76 103 l-47 67 60 0 c33 0 62 4 65 9 3 4
19 11 35 14 36 8 118 98 137 152 19 56 17 126 -6 179 -23 55 -98 138 -145 160
-42 20 -158 20 -204 0z m140 -75 c19 -7 49 -26 67 -43 35 -32 82 -114 82 -141
0 -27 -43 -119 -65 -138 -51 -44 -129 -58 -196 -35 -105 36 -156 194 -91 284
37 50 49 60 92 72 48 14 71 14 111 1z"/>
<path d="M8084 8372 c-60 -57 -128 -119 -386 -353 -44 -39 -45 -60 -8 -94 20
-18 21 -18 57 16 20 19 44 41 53 49 9 8 43 40 76 71 32 30 92 84 133 119 l73
63 -7 -44 c-4 -24 -13 -60 -20 -79 -20 -53 -55 -172 -55 -185 0 -7 -6 -25 -14
-41 -18 -36 -30 -125 -19 -141 7 -10 29 -8 98 6 50 11 103 24 118 30 16 6 45
11 65 11 21 0 53 5 72 11 19 5 60 14 89 18 l55 8 -91 -86 c-49 -47 -129 -120
-176 -161 -47 -41 -89 -83 -92 -94 -5 -13 1 -26 18 -44 l26 -25 73 63 c197
172 428 393 428 411 0 9 -9 24 -20 34 -19 17 -26 17 -73 6 -60 -14 -140 -31
-282 -61 -89 -19 -151 -33 -180 -40 -23 -6 -44 1 -40 13 2 6 20 66 40 132 52
174 104 346 114 376 7 22 4 32 -16 53 -13 14 -27 26 -31 26 -4 0 -39 -31 -78
-68z"/>
<path d="M2698 8187 c-46 -18 -107 -66 -143 -113 -80 -105 -71 -240 23 -337
58 -61 104 -80 192 -80 90 0 128 16 192 76 75 73 102 165 78 266 -14 61 -81
141 -144 173 -51 26 -148 33 -198 15z m139 -88 c63 -23 132 -118 133 -181 0
-35 -32 -108 -58 -131 -89 -80 -185 -73 -277 23 -40 41 -40 41 -40 120 0 79 0
79 40 120 22 23 49 46 60 50 29 12 109 12 142 -1z"/>
<path d="M2106 7865 c-9 -13 -16 -31 -16 -38 0 -13 100 -97 116 -97 4 0 24
-15 44 -32 21 -18 70 -55 109 -83 39 -27 99 -72 133 -99 35 -26 73 -52 86 -57
12 -5 22 -12 22 -16 0 -5 16 -19 36 -33 l36 -24 24 27 c13 16 24 32 24 37 0 9
-62 61 -120 100 -21 14 -84 60 -141 102 -57 43 -134 99 -171 125 -37 26 -85
63 -105 80 -46 39 -56 40 -77 8z"/>
<path d="M8442 7489 c-153 -76 -196 -235 -107 -392 102 -180 370 -167 468 23
52 99 29 225 -55 312 -92 94 -194 113 -306 57z m208 -79 c22 -11 52 -39 67
-62 24 -35 28 -52 28 -109 0 -66 -2 -70 -39 -108 -54 -55 -126 -85 -184 -76
-38 6 -55 16 -99 61 -51 53 -53 57 -53 110 0 57 23 115 56 145 67 59 155 74
224 39z"/>
<path d="M2200 7471 c-8 -4 -31 -11 -50 -15 -49 -8 -106 -58 -137 -119 -21
-42 -26 -65 -25 -127 0 -41 5 -86 10 -100 16 -38 92 -116 137 -139 54 -29 179
-30 233 -2 54 28 107 88 137 153 21 47 25 69 23 125 -3 66 -4 68 -28 65 -35
-5 -44 -17 -42 -55 6 -81 -52 -174 -131 -212 -57 -28 -75 -30 -111 -14 -27 13
-26 22 9 79 21 34 49 84 116 208 18 31 36 61 40 67 28 30 -2 61 -76 77 -75 17
-90 18 -105 9z m95 -91 c4 -6 -8 -33 -25 -62 -17 -28 -36 -60 -41 -72 -8 -18
-54 -100 -85 -150 -27 -44 -84 39 -84 124 0 60 33 120 83 150 35 22 141 28
152 10z"/>
<path d="M9100 7013 c-52 -19 -108 -40 -125 -47 -16 -7 -55 -21 -85 -30 -30
-10 -68 -24 -85 -31 -16 -8 -46 -18 -65 -24 -19 -5 -78 -25 -130 -44 -89 -31
-95 -36 -98 -63 -4 -47 10 -60 53 -47 33 10 36 10 30 -5 -20 -47 -27 -91 -22
-132 7 -55 46 -136 84 -172 35 -33 122 -68 170 -68 52 0 155 37 196 71 51 42
87 123 87 194 0 84 -47 178 -106 214 -24 14 -44 29 -44 32 0 8 36 24 115 48
39 12 86 30 105 40 30 14 35 21 32 46 -6 54 -11 55 -112 18z m-172 -217 c63
-32 96 -89 97 -167 0 -108 -81 -183 -201 -184 -51 0 -66 4 -97 28 -43 33 -87
112 -87 157 0 37 29 97 63 128 29 27 111 61 150 62 15 0 49 -11 75 -24z"/>
<path d="M1840 7001 c-21 -40 -10 -59 76 -138 134 -122 247 -233 242 -239 -3
-2 -68 -7 -144 -10 -285 -10 -324 -14 -324 -34 0 -11 -4 -22 -10 -25 -5 -3
-10 -14 -10 -25 0 -16 8 -17 108 -13 59 2 139 9 177 15 39 5 119 12 178 15
104 5 109 6 118 30 20 54 13 65 -133 203 -78 74 -166 159 -196 188 -30 28 -58
52 -63 52 -5 0 -13 -9 -19 -19z"/>
<path d="M1725 6359 c-96 -51 -135 -118 -135 -234 0 -93 15 -128 77 -185 61
-57 97 -70 195 -70 94 0 128 15 186 78 54 60 74 116 75 207 1 110 -29 170 -72
143 -31 -19 -33 -37 -11 -75 21 -35 27 -97 11 -108 -5 -3 -12 -18 -16 -33 -14
-64 -126 -153 -170 -136 -19 8 -19 2 5 115 11 52 20 107 20 122 0 16 7 50 16
76 8 27 14 64 12 82 l-3 34 -75 3 c-61 2 -83 -2 -115 -19z m120 -81 c-4 -18
-13 -69 -21 -113 -31 -178 -36 -195 -59 -195 -42 0 -115 101 -115 157 1 84 91
179 174 182 27 1 28 -1 21 -31z"/>
<path d="M9334 6315 c-14 -21 -15 -31 -6 -51 29 -62 112 -48 112 19 0 18 -5
38 -12 45 -22 22 -76 15 -94 -13z"/>
<path d="M9065 6263 c-33 -8 -80 -18 -105 -23 -25 -4 -58 -13 -73 -19 -16 -6
-39 -11 -52 -11 -47 0 -123 -22 -129 -36 -3 -9 -3 -26 0 -40 5 -21 12 -24 48
-24 22 0 59 5 81 11 22 6 63 14 90 19 28 5 75 16 105 24 30 8 75 18 100 21 62
8 95 34 86 69 -6 23 -11 26 -49 25 -23 -1 -69 -8 -102 -16z"/>
<path d="M9397 6024 c-3 -4 -46 -10 -94 -15 -87 -9 -236 -29 -363 -51 -36 -6
-94 -13 -130 -17 -53 -5 -65 -9 -64 -23 0 -10 1 -31 2 -46 l2 -28 53 8 c28 4
93 13 142 18 50 6 115 15 145 21 30 5 92 14 137 18 45 5 88 13 95 17 7 4 44
11 83 14 l70 5 3 43 3 42 -39 0 c-21 0 -41 -3 -45 -6z"/>
<path d="M1552 5750 c-84 -38 -152 -109 -168 -177 -4 -15 -12 -34 -18 -42 -7
-9 -12 -88 -14 -218 l-3 -203 350 0 351 0 0 173 c0 244 -29 335 -133 421 -68
55 -103 66 -219 66 -80 0 -112 -5 -146 -20z m274 -96 c56 -29 74 -49 110 -117
23 -45 25 -60 27 -190 l2 -142 -268 -3 -269 -2 4 142 c4 168 23 225 92 284 50
43 80 52 177 53 63 1 84 -3 125 -25z"/>
<path d="M8965 5738 c-44 -12 -106 -54 -136 -92 -37 -47 -49 -92 -49 -183 0
-77 4 -94 28 -138 30 -56 58 -67 87 -35 18 20 18 21 -2 43 -32 34 -52 106 -44
152 9 45 33 101 54 127 11 14 85 48 103 48 2 0 4 -66 4 -147 0 -82 3 -178 7
-215 l6 -68 49 0 c62 0 105 18 158 67 57 51 80 102 80 183 0 109 -62 207 -157
246 -46 20 -140 25 -188 12z m185 -103 c14 -7 33 -21 42 -31 22 -25 56 -115
51 -134 -13 -46 -41 -98 -63 -117 -24 -21 -88 -49 -95 -41 -3 3 -9 312 -6 336
1 14 26 10 71 -13z"/>
<path d="M8675 5220 c-4 -20 -2 -37 6 -46 17 -21 816 -414 841 -414 6 0 20 -7
30 -17 17 -15 18 -15 18 3 0 10 3 29 6 41 6 23 30 11 -581 307 -121 59 -241
118 -267 132 l-46 24 -7 -30z"/>
<path d="M8732 4787 c-6 -6 -14 -26 -17 -42 -7 -28 -44 -158 -66 -230 -5 -16
-9 -70 -9 -120 0 -79 4 -98 29 -150 55 -114 161 -183 298 -193 59 -4 84 0 133
18 103 38 193 140 215 240 4 19 11 40 15 45 4 6 12 30 19 55 17 69 48 173 55
191 6 13 0 18 -21 22 -15 3 -62 16 -103 27 -41 12 -97 26 -125 32 -27 6 -61
16 -75 23 -14 6 -63 22 -110 35 -47 12 -113 31 -148 41 -74 22 -77 23 -90 6z
m109 -107 c10 -6 38 -15 61 -20 24 -5 75 -19 113 -31 39 -12 95 -27 125 -35
43 -10 146 -42 157 -48 1 -1 -16 -74 -41 -166 -25 -96 -80 -171 -150 -208 -42
-21 -64 -26 -122 -25 -128 1 -227 76 -257 193 -13 53 -13 69 0 142 9 46 21 97
28 113 7 17 16 45 20 63 7 34 29 42 66 22z"/>
<path d="M2045 4747 c-37 -54 -137 -193 -164 -227 -19 -24 -20 -24 -53 -7 -41
20 -153 84 -202 114 l-36 22 7 -27 c15 -60 31 -83 88 -120 33 -21 67 -41 75
-45 8 -4 42 -25 75 -47 33 -22 75 -47 93 -55 33 -16 35 -35 4 -35 -9 0 -62
-14 -117 -31 -55 -16 -125 -36 -155 -44 -172 -43 -172 -43 -150 -95 14 -34 26
-36 90 -15 41 13 107 32 250 72 30 8 73 21 95 28 22 7 57 16 79 20 21 3 52 12
70 20 17 8 48 17 68 20 50 8 68 27 59 62 -7 26 -11 28 -55 26 -26 -1 -57 -8
-68 -15 -19 -13 -27 -10 -89 30 -43 28 -66 49 -61 56 29 46 88 132 93 136 3 3
23 29 44 59 34 50 37 57 29 95 -12 55 -33 56 -69 3z"/>
<path d="M2167 4184 c-21 -21 -5 -56 41 -88 26 -19 58 -53 71 -76 59 -105 -6
-237 -132 -271 -69 -18 -115 -3 -175 59 l-55 56 6 78 c4 61 2 82 -10 93 -32
32 -57 13 -72 -54 -11 -52 6 -131 45 -197 27 -46 92 -104 116 -104 8 0 20 -6
27 -12 7 -8 37 -13 74 -12 115 1 227 76 261 174 40 115 -1 252 -97 324 -34 25
-88 41 -100 30z"/>
<path d="M8566 4031 c-3 -4 -19 -11 -36 -14 -39 -8 -108 -79 -139 -141 -27
-55 -40 -180 -22 -206 9 -13 14 -13 38 0 25 14 28 22 29 71 3 82 49 160 116
195 29 15 124 19 132 6 3 -5 -37 -93 -89 -195 l-94 -186 30 -22 c39 -27 148
-37 204 -19 53 17 123 85 151 145 83 176 -53 375 -256 375 -32 0 -61 -4 -64
-9z m221 -143 c28 -32 53 -86 53 -117 0 -40 -44 -125 -74 -145 -51 -33 -103
-46 -136 -35 -16 6 -30 15 -30 20 0 5 22 50 49 101 26 51 60 117 75 146 14 28
30 52 34 52 5 0 18 -10 29 -22z"/>
<path d="M2405 3650 c-44 -32 -92 -65 -107 -73 -57 -31 -121 -93 -139 -135
-21 -48 -25 -97 -9 -107 6 -3 10 -17 10 -30 0 -28 77 -133 125 -169 44 -34 93
-33 106 1 7 19 3 25 -20 38 -80 41 -141 121 -141 184 0 31 7 49 31 76 17 19
36 35 43 35 9 0 54 -59 91 -119 19 -31 50 -66 79 -89 22 -17 42 -22 89 -22 56
0 62 2 98 39 36 36 39 43 39 95 0 91 -55 177 -139 217 l-50 23 20 22 c20 21
20 23 4 48 -10 14 -25 26 -34 25 -9 0 -52 -27 -96 -59z m108 -104 c41 -17 82
-61 102 -109 19 -45 8 -77 -37 -110 -27 -20 -29 -20 -62 -4 -33 15 -145 157
-146 184 0 16 60 53 88 53 12 0 37 -6 55 -14z"/>
<path d="M8242 3571 c-169 -125 -215 -325 -89 -384 69 -33 106 -19 220 84 81
74 102 84 141 70 23 -9 26 -16 26 -59 0 -38 -6 -58 -29 -88 -28 -40 -80 -89
-102 -96 -16 -5 -3 -78 14 -78 32 0 107 67 152 135 72 108 69 200 -9 256 -70
51 -125 34 -242 -74 -82 -76 -113 -88 -143 -58 -29 29 -26 69 7 122 29 45 104
119 121 119 5 0 17 7 25 16 14 14 14 18 1 45 -9 16 -21 29 -28 29 -8 0 -37
-17 -65 -39z"/>
<path d="M2760 3271 c-11 -21 -4 -51 12 -51 14 0 68 -63 68 -80 0 -27 -33 -64
-146 -168 l-111 -101 -51 51 c-47 48 -53 51 -77 40 -14 -6 -25 -17 -25 -23 0
-6 20 -34 45 -61 25 -28 45 -54 45 -58 0 -4 -16 -22 -35 -39 -32 -28 -34 -33
-24 -54 25 -46 41 -48 85 -12 l41 34 29 -24 c35 -29 46 -30 68 -6 16 17 15 20
-11 51 l-27 33 94 89 c52 50 105 97 118 105 30 20 62 84 62 121 0 60 -46 130
-107 161 -30 15 -41 14 -53 -8z"/>
<path d="M7924 3183 l-21 -29 48 -44 49 -45 0 -78 c0 -61 -3 -79 -15 -84 -9
-3 -62 2 -120 11 -162 25 -187 23 -225 -20 -17 -20 -30 -38 -28 -40 2 -2 71
-8 154 -13 146 -10 211 -23 226 -45 4 -6 8 -68 8 -138 0 -70 4 -129 8 -132 4
-2 20 10 34 28 26 32 26 36 30 218 1 103 7 190 11 194 4 5 83 -67 176 -160
l168 -168 26 32 c15 17 27 35 27 39 0 14 -501 496 -519 499 -9 2 -26 -10 -37
-25z"/>
<path d="M2995 2931 c-37 -17 -83 -66 -100 -107 -15 -38 -15 -46 0 -97 9 -30
22 -61 30 -67 8 -7 15 -17 15 -23 0 -5 12 -26 28 -46 47 -61 102 -155 102
-175 0 -29 -38 -83 -63 -90 -83 -22 -194 46 -254 157 -15 26 -32 47 -39 47
-56 0 -60 -55 -8 -120 82 -105 170 -165 258 -176 32 -4 53 1 95 23 89 46 122
131 85 219 -15 36 -86 145 -123 189 -10 11 -26 39 -36 63 -17 40 -17 46 -3 70
9 15 32 35 52 46 58 29 113 9 190 -68 60 -59 75 -82 96 -139 12 -34 33 -43 65
-29 21 10 23 15 15 42 -26 89 -129 213 -215 257 -54 27 -154 40 -190 24z"/>
<path d="M7428 2740 c-40 -22 -88 -77 -88 -103 0 -9 10 -22 22 -28 19 -10 25
-8 52 25 26 30 37 36 72 36 22 0 47 -6 56 -12 13 -12 174 -216 191 -245 5 -7
-14 -28 -48 -55 -30 -23 -55 -48 -55 -54 0 -6 9 -19 19 -28 18 -16 22 -15 77
24 l59 40 35 -40 c19 -22 39 -40 44 -40 4 0 21 11 37 24 24 20 27 27 16 38
-29 30 -55 75 -49 84 4 5 19 17 34 27 25 15 26 20 15 37 -18 30 -44 34 -74 10
-14 -11 -30 -17 -34 -13 -4 4 -50 64 -103 132 -52 68 -109 132 -126 142 -39
24 -104 24 -152 -1z"/>
<path d="M7074 2511 c-48 -22 -115 -85 -139 -132 -27 -52 -24 -172 5 -229 30
-59 75 -106 125 -133 59 -32 164 -30 228 3 148 75 206 220 143 355 -24 53 -99
129 -142 145 -44 17 -174 12 -220 -9z m180 -72 c24 -11 59 -39 77 -62 32 -39
34 -47 34 -117 0 -59 -4 -80 -19 -100 -75 -98 -202 -112 -284 -30 -57 57 -76
136 -51 211 15 45 45 76 94 99 53 24 96 24 149 -1z"/>
<path d="M6629 2498 l-36 -9 14 -47 c8 -26 19 -58 25 -72 20 -50 46 -140 39
-140 -3 0 -26 7 -51 16 -45 16 -121 13 -144 -5 -6 -4 -23 -11 -38 -15 -68 -16
-148 -139 -148 -229 0 -39 27 -125 46 -148 8 -8 14 -20 14 -25 0 -18 54 -62
100 -83 50 -23 132 -27 191 -11 45 13 105 59 138 107 l25 37 16 -39 c10 -25
19 -35 24 -27 4 7 18 12 31 12 13 0 26 4 29 8 5 8 -82 278 -108 337 -8 17 -31
84 -52 150 -33 105 -70 197 -77 194 -1 -1 -18 -5 -38 -11z m2 -329 c73 -25
119 -97 119 -185 0 -89 -44 -148 -133 -177 -46 -15 -51 -15 -101 3 -56 22 -80
43 -114 103 -53 92 -1 227 98 255 48 14 91 14 131 1z"/>
<path d="M3753 2487 c-6 -6 -31 -50 -55 -97 -25 -47 -78 -142 -117 -212 -39
-70 -71 -129 -71 -132 0 -2 -22 -43 -50 -91 -27 -48 -50 -92 -50 -99 0 -14 41
-36 65 -36 8 0 23 16 32 35 24 45 171 316 183 335 5 8 22 40 38 70 15 30 35
66 43 80 9 14 28 46 42 71 l26 46 -38 21 c-30 17 -41 19 -48 9z"/>
<path d="M3952 2313 c-16 -38 -42 -95 -57 -128 -137 -306 -131 -292 -180 -396
-19 -41 -35 -78 -35 -82 0 -5 64 -27 81 -27 4 0 17 24 29 53 31 73 59 135 80
182 10 22 46 101 80 175 34 74 68 149 76 165 8 17 18 45 23 62 9 30 7 33 -21
48 -17 8 -34 15 -38 15 -4 0 -21 -30 -38 -67z"/>
<path d="M4202 2268 c-7 -7 -12 -18 -12 -25 0 -8 -15 -62 -34 -121 -19 -59
-44 -141 -56 -182 -12 -41 -29 -93 -37 -115 -13 -36 -13 -40 3 -52 10 -7 30
-13 45 -13 29 0 30 2 91 214 16 55 34 90 58 119 32 36 42 40 92 45 62 5 110
-8 147 -39 36 -29 41 -116 12 -206 -12 -38 -33 -104 -46 -147 -14 -44 -24 -80
-23 -81 12 -8 69 -27 72 -24 15 19 49 109 65 169 11 41 24 88 30 103 6 16 11
60 11 98 0 56 -5 77 -24 108 -50 79 -212 128 -286 86 -37 -21 -42 -19 -35 19
6 31 4 34 -26 45 -39 13 -33 13 -47 -1z"/>
<path d="M5828 2090 c-27 -17 -24 -84 4 -104 29 -21 51 -20 78 2 24 19 31 75
12 94 -14 14 -75 19 -94 8z"/>
<path d="M5139 2069 c0 -2 -5 -42 -10 -89 -21 -207 -18 -200 -102 -181 -29 6
-97 16 -152 20 -107 10 -128 4 -123 -33 4 -29 52 -43 190 -56 168 -16 159 -12
157 -68 -1 -38 -16 -118 -35 -190 -2 -7 -13 -10 -26 -7 -13 3 -93 11 -178 19
-85 8 -163 17 -172 21 -15 6 -18 1 -18 -29 0 -20 0 -39 0 -43 0 -5 32 -11 72
-14 40 -3 101 -11 135 -18 34 -6 110 -12 170 -14 l108 -2 6 70 c3 39 11 102
17 140 7 39 16 117 21 175 6 58 15 142 22 188 7 48 8 87 3 92 -9 9 -83 25 -85
19z"/>
</g>
</svg>
